# File created by Blade
# Date/Time:  Thu Jan 22 19:29:47 2015
#---------------------------------------------------------
:version 1.10
:name HOM
:units
  mass 1.0
  length 1.000000
  angle deg
:documentation
     Acclaim Skeleton File
:root
   axis xyz
   order TX TY TZ RX RY RZ
   position 0.000000 0.000000 0.000000
   orientation 0 0 0
:bonedata
   begin
      id 1
      name RightUpLeg_dum
      direction -1.000000 0.000000 0.000000
      length 4.478084
      axis 0.0 0.0 0.0 xyz
   end
   begin
      id 2
      name LeftUpLeg_dum
      direction 1.000000 0.000000 0.000000
      length 4.478084
      axis 0.0 0.0 0.0 xyz
   end
   begin
      id 3
      name Spine_dum
      direction 0.000000 1.000000 0.000000
      length 6.068208
      axis 0.0 0.0 0.0 xyz
   end
   begin
      id 4
      name RightUpLeg
      direction 0.000000 -1.000000 0.000000
      length 16.405774
      axis 0.0 0.0 0.0 xyz
      dof rx ry rz
   end
   begin
      id 5
      name RightLeg
      direction 0.000000 -1.000000 0.000000
      length 14.644143
      axis 0.0 0.0 0.0 xyz
      dof rx ry rz
   end
   begin
      id 6
      name RightFoot
      direction 0.000000 -0.258819 0.965926
      length 5.806150
      axis 15.0 0.0 0.0 xyz
      dof rx ry rz
   end
   begin
      id 7
      name RightToeBase
      direction 0.000000 0.000000 1.000000
      length 2.952750
      axis 0.0 0.0 0.0 xyz
      dof rx ry rz
   end
   begin
      id 8
      name LeftUpLeg
      direction 0.000000 -1.000000 0.000000
      length 16.405774
      axis 0.0 0.0 0.0 xyz
      dof rx ry rz
   end
   begin
      id 9
      name LeftLeg
      direction 0.000000 -1.000000 0.000000
      length 14.644143
      axis 0.0 0.0 0.0 xyz
      dof rx ry rz
   end
   begin
      id 10
      name LeftFoot
      direction 0.000000 -0.258819 0.965926
      length 5.806150
      axis 15.0 0.0 0.0 xyz
      dof rx ry rz
   end
   begin
      id 11
      name LeftToeBase
      direction 0.000000 0.000000 1.000000
      length 2.952750
      axis 0.0 0.0 0.0 xyz
      dof rx ry rz
   end
   begin
      id 12
      name Spine
      direction 0.000000 1.000000 0.000000
      length 0.000000
      axis 0.0 0.0 0.0 xyz
      dof rx ry rz
   end
   begin
      id 13
      name Spine_dum1
      direction 0.000000 1.000000 0.000000
      length 10.013923
      axis 0.0 0.0 0.0 xyz
   end
   begin
      id 14
      name Spine_dum2
      direction 0.000000 1.000000 0.000000
      length 10.013923
      axis 0.0 0.0 0.0 xyz
   end
   begin
      id 15
      name Spine_dum3
      direction 0.000000 1.000000 0.000000
      length 15.777476
      axis 0.0 0.0 0.0 xyz
   end
   begin
      id 16
      name RightShoulder
      direction -1.000000 0.000000 0.000000
      length 7.190220
      axis 0.0 0.0 90.0 xyz
      dof rx ry rz
   end
   begin
      id 17
      name RightArm
      direction -1.000000 0.000000 0.000000
      length 10.177469
      axis 0.0 0.0 90.0 xyz
      dof rx ry rz
   end
   begin
      id 18
      name RightForeArm
      direction -1.000000 0.000000 0.000000
      length 8.392114
      axis 0.0 0.0 90.0 xyz
      dof ry rz rx
   end
   begin
      id 19
      name RightHand
      direction -1.000000 0.000000 0.000000
      length 0.000000
      axis 0.0 0.0 90.0 xyz
      dof rx ry rz
   end
   begin
      id 20
      name RightHand_dum1
      direction -1.000000 0.000000 0.000000
      length 3.937000
      axis 0.0 0.0 90.0 xyz
   end
   begin
      id 21
      name RightHand_dum2
      direction 0.000000 0.000000 0.000000
      length 0.000000
      axis 0.0 0.0 90.0 xyz
   end
   begin
      id 22
      name RightHandThumb1
      direction 0.000000 0.000000 1.000000
      length 3.937000
      axis 0.0 0.0 90.0 xyz
      dof rx rz ry
   end
   begin
      id 23
      name LeftShoulder
      direction 1.000000 0.000000 0.000000
      length 7.190220
      axis 0.0 0.0 -90.0 xyz
      dof rx ry rz
   end
   begin
      id 24
      name LeftArm
      direction 1.000000 0.000000 0.000000
      length 10.177469
      axis 0.0 0.0 -90.0 xyz
      dof rx ry rz
   end
   begin
      id 25
      name LeftForeArm
      direction 1.000000 0.000000 0.000000
      length 8.392114
      axis 0.0 0.0 -90.0 xyz
      dof ry rz rx
   end
   begin
      id 26
      name LeftHand
      direction 1.000000 0.000000 0.000000
      length 0.000000
      axis 0.0 0.0 -90.0 xyz
      dof rx ry rz
   end
   begin
      id 27
      name LeftHand_dum1
      direction 1.000000 0.000000 0.000000
      length 3.937000
      axis 0.0 0.0 -90.0 xyz
   end
   begin
      id 28
      name LeftHand_dum2
      direction 0.000000 0.000000 0.000000
      length 0.000000
      axis 0.0 0.0 -90.0 xyz
   end
   begin
      id 29
      name LeftHandThumb1
      direction 0.000000 0.000000 1.000000
      length 3.937000
      axis 0.0 0.0 -90.0 xyz
      dof rx rz ry
   end
   begin
      id 30
      name Head
      direction 0.000000 1.000000 0.000000
      length 4.527550
      axis 0.0 0.0 0.0 xyz
      dof rx ry rz
   end
:hierarchy
   begin
      root RightUpLeg_dum LeftUpLeg_dum Spine_dum
      RightUpLeg_dum RightUpLeg
      LeftUpLeg_dum LeftUpLeg
      Spine_dum Spine
      RightUpLeg RightLeg
      RightLeg RightFoot
      RightFoot RightToeBase
      LeftUpLeg LeftLeg
      LeftLeg LeftFoot
      LeftFoot LeftToeBase
      Spine Spine_dum1 Spine_dum2 Spine_dum3
      Spine_dum1 RightShoulder
      Spine_dum2 LeftShoulder
      Spine_dum3 Head
      RightShoulder RightArm
      RightArm RightForeArm
      RightForeArm RightHand
      RightHand RightHand_dum1 RightHand_dum2
      RightHand_dum2 RightHandThumb1
      LeftShoulder LeftArm
      LeftArm LeftForeArm
      LeftForeArm LeftHand
      LeftHand LeftHand_dum1 LeftHand_dum2
      LeftHand_dum2 LeftHandThumb1
   end

# File created by Blade
# Date/Time:  Thu Jan 22 19:29:39 2015
# Frame Rate: 120.000 fps
#------------------------------------------------------
:FULLY-SPECIFIED
:DEGREES
654
root 1.142877 33.578312 1.700070 28.692419 -14.182363 -9.181679
RightUpLeg -21.496369 16.449526 -16.743035
RightLeg 156.732678 -0.000000 -0.000000
RightFoot 38.009991 15.105795 5.573022
RightToeBase -17.634018 -0.000000 0.000000
LeftUpLeg -29.026666 2.663571 -0.078348
LeftLeg 13.768865 -0.000000 -0.000000
LeftFoot -15.507522 6.814121 -2.935028
LeftToeBase 7.425504 -0.000000 -0.000000
Spine -3.322609 -10.363750 10.780927
RightShoulder -15.147538 -28.049262 -8.926452
RightArm 13.398287 -22.249878 75.299762
RightForeArm 6.332976 0.000000 12.316449
RightHand 2.711454 -0.000000 26.115915
RightHandThumb1 -24.326973 -0.000000 -32.862282
LeftShoulder -18.062469 -5.239883 35.358314
LeftArm 65.564710 -15.603867 -71.581822
LeftForeArm -12.516049 -0.000000 43.167771
LeftHand -7.806653 -0.000000 19.039871
LeftHandThumb1 -26.253704 0.000000 33.147579
Head -0.075020 26.713487 -14.840360
655
root 1.133321 33.573862 1.706962 28.687790 -14.411658 -9.216288
RightUpLeg -21.547241 16.626472 -16.732660
RightLeg 156.749602 -0.000000 -0.000000
RightFoot 38.012105 15.022526 5.555043
RightToeBase -17.794435 -0.000000 0.000000
LeftUpLeg -28.961216 2.660751 -0.071623
LeftLeg 13.774074 -0.000000 -0.000000
LeftFoot -15.615959 7.081540 -2.848748
LeftToeBase 7.546807 -0.000000 -0.000000
Spine -3.349477 -10.253392 10.615368
RightShoulder -15.194494 -28.030659 -8.853833
RightArm 13.465824 -22.307033 75.259915
RightForeArm 6.264161 -0.000000 12.233081
RightHand 2.656816 -0.000000 26.110907
RightHandThumb1 -24.326973 -0.000000 -32.862282
LeftShoulder -18.095266 -5.203926 35.416370
LeftArm 65.655648 -15.827223 -71.690534
LeftForeArm -12.499744 -0.000000 43.274868
LeftHand -7.929056 0.000000 18.893069
LeftHandThumb1 -26.253704 0.000000 33.147579
Head 0.142826 26.868088 -14.706482
656
root 1.124419 33.570681 1.711868 28.683542 -14.626020 -9.250905
RightUpLeg -21.628275 16.767697 -16.717255
RightLeg 156.772280 -0.000000 -0.000000
RightFoot 38.024250 14.844195 5.560465
RightToeBase -18.035137 -0.000000 0.000000
LeftUpLeg -28.963829 2.780958 -0.120889
LeftLeg 13.900125 -0.000000 -0.000000
LeftFoot -15.726242 7.277410 -2.668825
LeftToeBase 7.631483 -0.000000 -0.000000
Spine -3.378762 -10.177242 10.468059
RightShoulder -15.204240 -28.002361 -8.812464
RightArm 13.540540 -22.353808 75.243221
RightForeArm 6.102628 -0.000000 12.134200
RightHand 2.600010 -0.000000 26.036596
RightHandThumb1 -24.326973 -0.000000 -32.862282
LeftShoulder -18.119922 -5.199831 35.476290
LeftArm 65.678582 -16.053400 -71.710065
LeftForeArm -12.514534 -0.000000 43.378245
LeftHand -8.066294 0.000000 18.859413
LeftHandThumb1 -26.253704 0.000000 33.147579
Head 0.352831 27.054436 -14.611169
657
root 1.119240 33.567421 1.718173 28.665770 -14.841078 -9.278637
RightUpLeg -21.723371 16.937407 -16.739045
RightLeg 156.788408 -0.000000 -0.000000
RightFoot 38.045661 14.716239 5.543272
RightToeBase -18.395585 -0.000000 0.000000
LeftUpLeg -28.905149 2.846347 -0.141861
LeftLeg 13.927561 -0.000000 -0.000000
LeftFoot -15.811581 7.377003 -2.637300
LeftToeBase 7.743110 -0.000000 -0.000000
Spine -3.405299 -10.140029 10.332371
RightShoulder -15.187771 -27.943151 -8.819430
RightArm 13.630589 -22.452786 75.222602
RightForeArm 6.115618 0.000000 11.997096
RightHand 2.642266 -0.000000 25.588322
RightHandThumb1 -24.326973 -0.000000 -32.862282
LeftShoulder -18.168034 -5.142856 35.528003
LeftArm 65.737540 -16.272371 -71.712070
LeftForeArm -12.517218 -0.000000 43.406966
LeftHand -8.133041 -0.000000 18.802093
LeftHandThumb1 -26.253704 0.000000 33.147579
Head 0.568935 27.298141 -14.535897
658
root 1.115513 33.564521 1.725292 28.622584 -15.042096 -9.286320
RightUpLeg -21.809995 17.075163 -16.770166
RightLeg 156.806169 -0.000000 -0.000000
RightFoot 38.047477 14.586904 5.491079
RightToeBase -18.653131 -0.000000 0.000000
LeftUpLeg -28.814280 2.889714 -0.172334
LeftLeg 13.923490 -0.000000 -0.000000
LeftFoot -15.875781 7.522482 -2.579274
LeftToeBase 7.841343 -0.000000 -0.000000
Spine -3.413373 -10.126791 10.191874
RightShoulder -15.169493 -27.872026 -8.839176
RightArm 13.726473 -22.599663 75.204545
RightForeArm 5.990302 0.000000 11.868569
RightHand 2.568128 0.000000 25.540367
RightHandThumb1 -24.326973 -0.000000 -32.862282
LeftShoulder -18.207263 -5.072967 35.569630
LeftArm 65.804710 -16.492414 -71.672829
LeftForeArm -12.620051 0.000000 43.365077
LeftHand -8.054264 -0.000000 18.689545
LeftHandThumb1 -26.253704 0.000000 33.147579
Head 0.780658 27.540516 -14.492651
659
root 1.111692 33.562742 1.735089 28.556894 -15.219215 -9.297183
RightUpLeg -21.873638 17.207141 -16.780549
RightLeg 156.811323 -0.000000 -0.000000
RightFoot 38.038257 14.502890 5.457660
RightToeBase -18.832044 -0.000000 0.000000
LeftUpLeg -28.700118 2.948994 -0.195207
LeftLeg 13.927113 -0.000000 -0.000000
LeftFoot -15.927790 7.588722 -2.637753
LeftToeBase 7.864787 -0.000000 -0.000000
Spine -3.400884 -10.150990 10.080696
RightShoulder -15.152318 -27.859822 -8.834769
RightArm 13.896001 -22.725342 75.143837
RightForeArm 5.858139 -0.000000 11.763322
RightHand 2.484118 -0.000000 25.507254
RightHandThumb1 -24.326973 -0.000000 -32.862282
LeftShoulder -18.251653 -5.010899 35.597243
LeftArm 65.868100 -16.712527 -71.657412
LeftForeArm -12.662674 -0.000000 43.356110
LeftHand -8.222547 -0.000000 18.601985
LeftHandThumb1 -26.253704 0.000000 33.147579
Head 0.976747 27.800874 -14.475914
660
root 1.113276 33.561842 1.745209 28.476845 -15.371220 -9.270943
RightUpLeg -21.940689 17.307556 -16.842919
RightLeg 156.822513 -0.000000 -0.000000
RightFoot 38.033807 14.410155 5.449571
RightToeBase -18.838289 -0.000000 0.000000
LeftUpLeg -28.525605 2.817588 -0.170773
LeftLeg 13.809907 -0.000000 -0.000000
LeftFoot -15.923942 7.751884 -2.808795
LeftToeBase 7.868606 -0.000000 -0.000000
Spine -3.393889 -10.196396 9.968147
RightShoulder -15.121096 -27.830209 -8.855745
RightArm 14.031760 -22.823628 75.107137
RightForeArm 5.807351 -0.000000 11.645289
RightHand 2.480633 -0.000000 25.440680
RightHandThumb1 -24.326973 -0.000000 -32.862282
LeftShoulder -18.277398 -4.949823 35.606655
LeftArm 65.932980 -16.896426 -71.545221
LeftForeArm -12.772114 -0.000000 43.251804
LeftHand -8.217034 -0.000000 18.593271
LeftHandThumb1 -26.253704 0.000000 33.147579
Head 1.187696 28.037389 -14.469440
